<svg xmlns="http://www.w3.org/2000/svg" version="1.1" xmlns:xlink="http://www.w3.org/1999/xlink" xmlns:svgjs="http://svgjs.com/svgjs" width="512" height="512" x="0" y="0" viewBox="0 0 512 512" style="enable-background:new 0 0 512 512" xml:space="preserve" class=""><g><path d="M373.825 327.289c-11.776.002-21.323-9.542-21.326-21.318-.002-11.776 9.542-21.323 21.318-21.326 11.776-.002 21.323 9.542 21.326 21.318-.013 11.769-9.549 21.308-21.318 21.326m-235.65 0c-11.776.002-21.323-9.542-21.326-21.318-.002-11.776 9.542-21.323 21.318-21.326 11.776-.002 21.323 9.542 21.326 21.318-.012 11.77-9.548 21.31-21.318 21.326m243.296-128.424 42.607-73.796a8.866 8.866 0 0 0-3.238-12.113 8.866 8.866 0 0 0-12.113 3.238l-43.146 74.728c-32.993-15.058-70.047-23.443-109.585-23.443s-76.588 8.397-109.581 23.443l-43.142-74.728a8.864 8.864 0 0 0-12.109-3.246 8.864 8.864 0 0 0-3.246 12.109l42.611 73.808C57.364 238.66 7.32 312.729 0 400.241h512c-7.328-87.512-57.368-161.581-130.529-201.376" style="" fill="#3ddc84" data-original="#3ddc84" class=""></path></g></svg>