<svg xmlns="http://www.w3.org/2000/svg" version="1.1" xmlns:xlink="http://www.w3.org/1999/xlink" xmlns:svgjs="http://svgjs.com/svgjs" width="512" height="512" x="0" y="0" viewBox="0 0 24 24" style="enable-background:new 0 0 512 512" xml:space="preserve" fill-rule="evenodd" class=""><g><path d="M11 2H6a4 4 0 0 0-4 4v12a4 4 0 0 0 4 4h12a4 4 0 0 0 4-4v-5a1 1 0 0 0-2 0v5a2 2 0 0 1-2 2H6a2 2 0 0 1-2-2V6a2 2 0 0 1 2-2h5a1 1 0 0 0 0-2zm7.586 2H15a1 1 0 0 1 0-2h6a1 1 0 0 1 1 1v6a1 1 0 0 1-2 0V5.414l-7.293 7.293a1 1 0 0 1-1.414-1.414z" fill="#000000" data-original="#000000" class=""></path></g></svg>