<svg xmlns="http://www.w3.org/2000/svg" version="1.1" xmlns:xlink="http://www.w3.org/1999/xlink" xmlns:svgjs="http://svgjs.com/svgjs" width="512" height="512" x="0" y="0" viewBox="0 0 470.727 470.727" style="enable-background:new 0 0 512 512" xml:space="preserve" class=""><g><path d="M445.91 306.155c-5.747-21.943-21.42-45.975-43.886-70.531 22.465-24.555 38.139-49.11 43.886-70.531 4.702-17.763 3.135-33.959-4.18-47.02-18.808-32.392-66.873-37.094-122.776-25.078C301.192 38.661 273.502 0 235.363 0c-35.004 0-64.784 35.527-83.592 92.996-6.792-1.567-13.061-2.612-19.853-3.657-51.2-7.314-88.294 2.612-102.922 28.735-7.314 13.061-8.882 29.257-4.18 47.02 5.747 21.943 21.42 45.976 43.886 70.531-22.465 24.555-38.139 49.11-43.886 70.531-4.702 17.763-3.135 33.959 4.18 47.02C41.012 373.551 66.09 384 101.094 384c9.404 0 19.853-1.045 30.824-2.612 6.269-1.045 13.061-2.09 19.853-3.657 18.286 57.469 48.588 92.996 83.592 92.996 38.139 0 65.829-38.661 83.069-92.996 18.286 4.18 35.527 6.269 51.722 6.269 32.914 0 58.514-9.404 71.576-31.347 7.315-12.539 8.882-28.735 4.18-46.498zm-75.755-188.082c22.465 0 38.661 5.747 44.931 16.196 3.135 5.747 3.657 13.584 1.045 22.988-4.18 15.151-16.196 35.004-35.527 56.947-13.061-12.016-28.212-24.033-44.408-35.527-2.09-18.808-5.224-37.616-8.882-54.857 15.674-4.179 30.302-5.747 42.841-5.747zm-98.743 179.2c-12.016 6.792-24.555 13.061-36.049 18.808a594.946 594.946 0 0 1-36.049-18.808c-12.539-6.792-23.51-14.106-34.482-21.42-1.045-13.061-1.567-26.645-1.567-40.229s.522-27.167 1.567-40.229c10.971-7.314 21.943-14.106 34.482-21.42a594.946 594.946 0 0 1 36.049-18.808 594.946 594.946 0 0 1 36.049 18.808c12.539 6.792 23.51 14.106 34.482 21.42 1.045 13.061 1.567 26.645 1.567 40.229s-.522 27.167-1.567 40.229c-10.449 7.314-21.943 14.629-34.482 21.42zm29.78 18.809c-1.567 8.359-3.135 16.196-4.702 24.033-7.837-2.612-15.673-5.224-23.51-8.359l14.106-7.837c4.702-2.09 9.404-5.225 14.106-7.837zm-103.445 16.196c-7.837 3.135-15.673 5.747-23.51 7.837-1.567-7.837-3.135-15.673-4.702-24.033 4.702 2.612 9.404 5.747 14.106 8.359l14.106 7.837zm-65.829-80.458c-6.792-5.747-13.061-10.971-19.331-16.196 5.747-5.224 12.539-10.971 19.331-16.196v32.392zm37.617-96.653c1.567-8.359 3.135-16.196 4.702-24.033 7.837 2.09 15.151 5.225 23.51 7.837l-14.106 7.837c-4.702 2.612-9.404 5.747-14.106 8.359zm103.445-16.196c7.837-3.135 16.196-5.747 23.51-8.359 1.567 7.837 3.135 15.673 4.702 24.033-4.702-2.612-9.404-5.747-14.106-8.359-4.702-2.09-9.404-4.702-14.106-7.315zm65.306 80.458c6.792 5.747 13.061 10.971 19.331 16.196-5.747 5.224-12.539 10.971-19.331 16.196 0-5.747.522-10.971.522-16.196 0-5.225 0-10.972-.522-16.196zM187.82 86.204c13.584-34.482 31.347-54.857 47.543-54.857s33.959 20.376 47.543 54.335c2.09 4.702 3.657 9.927 5.747 15.151-17.241 5.224-35.004 12.016-52.767 19.853-17.763-7.837-36.049-14.629-53.29-19.853 1.567-5.225 3.135-9.927 5.224-14.629zM56.163 133.747c5.747-10.449 21.943-15.673 43.886-15.673 12.539 0 27.167 1.567 43.363 5.224-3.657 17.241-6.792 35.527-8.882 54.857a446.914 446.914 0 0 0-43.886 35.527c-19.853-21.42-31.347-41.273-35.527-56.947-2.611-9.404-2.088-17.241 1.046-22.988zm0 203.755c-3.135-5.747-3.657-13.584-1.045-22.988 4.18-15.151 16.196-35.004 35.527-56.947 13.061 12.016 28.212 24.033 43.886 35.527 2.09 19.331 4.702 37.616 8.882 54.857-44.931 9.404-77.846 5.747-87.25-10.449zm226.743 48.065c-13.584 33.959-31.347 54.335-47.543 54.335s-33.959-20.376-47.543-54.857c-2.09-4.702-3.657-9.927-5.224-15.151 17.241-5.224 35.004-12.016 53.29-19.853 17.763 7.837 35.527 14.629 52.767 19.853-2.09 5.747-3.657 10.449-5.747 15.673zm131.657-48.065c-9.404 16.196-42.318 20.376-87.771 10.971 4.18-17.763 6.792-36.049 8.882-54.857 16.196-11.494 30.824-23.51 44.408-35.527 19.853 21.42 31.347 41.273 35.527 56.947 2.611 8.882 2.089 16.719-1.046 22.466z" style="" fill="#1185e0" data-original="#1185e0"></path><path d="M235.363 282.645c-26.122 0-47.02-20.898-47.02-47.02s20.898-47.02 47.02-47.02c26.122 0 47.02 20.898 47.02 47.02s-20.897 47.02-47.02 47.02zm0-62.694c-8.882 0-15.673 6.792-15.673 15.673s6.792 15.673 15.673 15.673 15.673-6.792 15.673-15.673-6.791-15.673-15.673-15.673z" style="" fill="#4dcfe0" data-original="#4dcfe0"></path></g></svg>